<?xml version="1.0"?>
<svg xmlns="http://www.w3.org/2000/svg" xmlns:xlink="http://www.w3.org/1999/xlink" version="1.1" id="Capa_1" x="0px" y="0px" viewBox="0 0 512 512" style="enable-background:new 0 0 512 512;" xml:space="preserve" width="512px" height="512px"><g><g>
	<g>
		<path d="M256,0c-61.601,0-111.718,50.117-111.718,111.718S194.399,223.436,256,223.436s111.718-50.117,111.718-111.718    S317.601,0,256,0z M256,208.407c-53.314,0-96.689-43.375-96.689-96.689S202.686,15.029,256,15.029s96.689,43.375,96.689,96.689    S309.314,208.407,256,208.407z" data-original="#000000" class="active-path" data-old_color="#000000" fill="#D1A284"/>
	</g>
</g><g>
	<g>
		<path d="M289.465,95.186c4.15,0,7.515-3.365,7.515-7.515v-8.016c0-17.403-14.159-31.562-31.562-31.562h-0.501V31.562    c0-4.15-3.365-7.515-7.515-7.515c-4.15,0-7.515,3.365-7.515,7.515v16.707c-17.973,1.767-32.063,16.965-32.063,35.395    c0,19.613,15.956,35.569,35.569,35.569h8.016c11.326,0,20.54,9.214,20.54,20.54s-9.214,20.54-20.54,20.54h-12.023    c-9.116,0-16.532-7.417-16.532-16.532c0-4.15-3.365-7.515-7.515-7.515c-4.15,0-7.515,3.365-7.515,7.515    c0,17.403,14.159,31.562,31.562,31.562h0.501v16.532c0,4.15,3.365,7.515,7.515,7.515c4.15,0,7.515-3.365,7.515-7.515v-16.707    c17.973-1.767,32.063-16.965,32.063-35.395c0-19.613-15.956-35.57-35.569-35.57h-8.016c-11.326,0-20.54-9.214-20.54-20.54    s9.215-20.54,20.54-20.54h12.023c9.116,0,16.532,7.417,16.532,16.532v8.016C281.951,91.821,285.315,95.186,289.465,95.186z" data-original="#000000" class="active-path" data-old_color="#000000" fill="#D1A284"/>
	</g>
</g><g>
	<g>
		<path d="M376.235,224.438h-240.47c-26.242,0-47.593,21.351-47.593,47.593v232.454c0,4.15,3.365,7.515,7.515,7.515    s7.515-3.365,7.515-7.515V272.031c0-17.955,14.609-32.564,32.564-32.564h58.985l54.246,139.49c2.431,6.25,11.578,6.25,14.007,0    l54.246-139.49h58.985c17.955,0,32.564,14.609,32.564,32.564v232.454c0,4.15,3.365,7.515,7.515,7.515s7.515-3.365,7.515-7.515    V272.031C423.828,245.789,402.477,224.438,376.235,224.438z M230.862,290.861l-19.986-51.393h15.21l6.313,25.253L230.862,290.861z     M256,355.501l-12.152-31.248c0.086-0.388,0.151-0.784,0.175-1.193l3.031-51.53h17.891l3.078,52.323    c0.011,0.193,0.036,0.382,0.061,0.57L256,355.501z M266.164,256.501h-20.328l-4.258-17.033h28.844L266.164,256.501z     M281.138,290.86l-1.537-26.139l6.313-25.253h15.21L281.138,290.86z" data-original="#000000" class="active-path" data-old_color="#000000" fill="#D1A284"/>
	</g>
</g><g>
	<g>
		<circle cx="256" cy="407.796" r="7.515" data-original="#000000" class="active-path" data-old_color="#000000" fill="#D1A284"/>
	</g>
</g><g>
	<g>
		<circle cx="256" cy="439.859" r="7.515" data-original="#000000" class="active-path" data-old_color="#000000" fill="#D1A284"/>
	</g>
</g><g>
	<g>
		<circle cx="256" cy="470.92" r="7.515" data-original="#000000" class="active-path" data-old_color="#000000" fill="#D1A284"/>
	</g>
</g><g>
	<g>
		<path d="M352.188,420.488c-4.15,0-7.515,3.365-7.515,7.515v76.482c0,4.15,3.365,7.515,7.515,7.515s7.515-3.365,7.515-7.515    v-76.482C359.703,423.853,356.338,420.488,352.188,420.488z" data-original="#000000" class="active-path" data-old_color="#000000" fill="#D1A284"/>
	</g>
</g><g>
	<g>
		<path d="M352.188,320.626c-4.15,0-7.515,3.365-7.515,7.515v64.125c0,4.15,3.365,7.515,7.515,7.515s7.515-3.365,7.515-7.515    v-64.125C359.703,323.991,356.338,320.626,352.188,320.626z" data-original="#000000" class="active-path" data-old_color="#000000" fill="#D1A284"/>
	</g>
</g><g>
	<g>
		<path d="M159.812,320.626c-4.15,0-7.515,3.365-7.515,7.515v176.344c0,4.15,3.365,7.515,7.515,7.515s7.515-3.365,7.515-7.515    V328.141C167.327,323.991,163.962,320.626,159.812,320.626z" data-original="#000000" class="active-path" data-old_color="#000000" fill="#D1A284"/>
	</g>
</g></g> </svg>
